{
	"patcher" : 	{
		"fileversion" : 1,
		"appversion" : 		{
			"major" : 8,
			"minor" : 0,
			"revision" : 5,
			"architecture" : "x64",
			"modernui" : 1
		}
,
		"classnamespace" : "box",
		"rect" : [ 59.0, 104.0, 640.0, 480.0 ],
		"bglocked" : 0,
		"openinpresentation" : 0,
		"default_fontsize" : 12.0,
		"default_fontface" : 0,
		"default_fontname" : "Arial",
		"gridonopen" : 1,
		"gridsize" : [ 15.0, 15.0 ],
		"gridsnaponopen" : 1,
		"objectsnaponopen" : 1,
		"statusbarvisible" : 2,
		"toolbarvisible" : 1,
		"lefttoolbarpinned" : 0,
		"toptoolbarpinned" : 0,
		"righttoolbarpinned" : 0,
		"bottomtoolbarpinned" : 0,
		"toolbars_unpinned_last_save" : 0,
		"tallnewobj" : 0,
		"boxanimatetime" : 200,
		"enablehscroll" : 1,
		"enablevscroll" : 1,
		"devicewidth" : 0.0,
		"description" : "",
		"digest" : "",
		"tags" : "",
		"style" : "",
		"subpatcher_template" : "",
		"boxes" : [ 			{
				"box" : 				{
					"id" : "obj-107",
					"maxclass" : "newobj",
					"numinlets" : 1,
					"numoutlets" : 1,
					"outlettype" : [ "" ],
					"patching_rect" : [ 118.464354999999998, 407.0, 73.0, 22.0 ],
					"text" : "fromsymbol"
				}

			}
, 			{
				"box" : 				{
					"id" : "obj-5",
					"linecount" : 2,
					"maxclass" : "comment",
					"numinlets" : 1,
					"numoutlets" : 0,
					"patching_rect" : [ 164.0, 294.70010400000001, 204.0, 33.0 ],
					"text" : "use this number as a split point and apply it to the original string"
				}

			}
, 			{
				"box" : 				{
					"id" : "obj-3",
					"maxclass" : "comment",
					"numinlets" : 1,
					"numoutlets" : 0,
					"patching_rect" : [ 182.0, 252.900055000000009, 157.0, 20.0 ],
					"text" : "count how many characters"
				}

			}
, 			{
				"box" : 				{
					"id" : "obj-2",
					"linecount" : 3,
					"maxclass" : "comment",
					"numinlets" : 1,
					"numoutlets" : 0,
					"patching_rect" : [ 219.0, 156.233368000000013, 266.0, 47.0 ],
					"text" : "staring from the back of the string, look for an upper case roman numeral, and output from there to the beginning."
				}

			}
, 			{
				"box" : 				{
					"id" : "obj-494",
					"maxclass" : "newobj",
					"numinlets" : 3,
					"numoutlets" : 1,
					"outlettype" : [ "int" ],
					"patching_rect" : [ 42.099854000000001, 349.900055000000009, 40.0, 22.0 ],
					"text" : "itoa"
				}

			}
, 			{
				"box" : 				{
					"id" : "obj-495",
					"maxclass" : "newobj",
					"numinlets" : 3,
					"numoutlets" : 1,
					"outlettype" : [ "int" ],
					"patching_rect" : [ 118.464354999999998, 349.900055000000009, 40.0, 22.0 ],
					"text" : "itoa"
				}

			}
, 			{
				"box" : 				{
					"id" : "obj-496",
					"maxclass" : "newobj",
					"numinlets" : 3,
					"numoutlets" : 1,
					"outlettype" : [ "list" ],
					"patching_rect" : [ 42.099854000000001, 156.233368000000013, 40.0, 22.0 ],
					"text" : "atoi"
				}

			}
, 			{
				"box" : 				{
					"id" : "obj-498",
					"maxclass" : "newobj",
					"numinlets" : 2,
					"numoutlets" : 2,
					"outlettype" : [ "", "" ],
					"patching_rect" : [ 118.464354999999998, 252.900055000000009, 39.0, 22.0 ],
					"text" : "zl len"
				}

			}
, 			{
				"box" : 				{
					"id" : "obj-499",
					"maxclass" : "newobj",
					"numinlets" : 1,
					"numoutlets" : 2,
					"outlettype" : [ "", "" ],
					"patching_rect" : [ 42.099854000000001, 100.0, 76.364502000000002, 22.0 ],
					"text" : "t s s"
				}

			}
, 			{
				"box" : 				{
					"id" : "obj-500",
					"maxclass" : "newobj",
					"numinlets" : 3,
					"numoutlets" : 1,
					"outlettype" : [ "list" ],
					"patching_rect" : [ 118.464354999999998, 204.233368000000013, 40.0, 22.0 ],
					"text" : "atoi"
				}

			}
, 			{
				"box" : 				{
					"fontname" : "Arial",
					"fontsize" : 13.0,
					"id" : "obj-501",
					"maxclass" : "newobj",
					"numinlets" : 2,
					"numoutlets" : 2,
					"outlettype" : [ "", "" ],
					"patching_rect" : [ 42.099854000000001, 294.70010400000001, 95.364502000000002, 23.0 ],
					"text" : "zl ecils 1"
				}

			}
, 			{
				"box" : 				{
					"fontname" : "Arial",
					"fontsize" : 11.595186999999999,
					"id" : "obj-509",
					"maxclass" : "newobj",
					"numinlets" : 1,
					"numoutlets" : 5,
					"outlettype" : [ "", "", "", "", "" ],
					"patching_rect" : [ 99.464354999999998, 160.5, 95.0, 21.0 ],
					"text" : "regexp .*[I|V](.+)"
				}

			}
, 			{
				"box" : 				{
					"comment" : "",
					"id" : "obj-515",
					"index" : 1,
					"maxclass" : "inlet",
					"numinlets" : 0,
					"numoutlets" : 1,
					"outlettype" : [ "" ],
					"patching_rect" : [ 42.099854000000001, 40.0, 30.0, 30.0 ]
				}

			}
, 			{
				"box" : 				{
					"comment" : "",
					"id" : "obj-516",
					"index" : 1,
					"maxclass" : "outlet",
					"numinlets" : 1,
					"numoutlets" : 0,
					"patching_rect" : [ 42.099854000000001, 458.500030999999979, 30.0, 30.0 ]
				}

			}
, 			{
				"box" : 				{
					"comment" : "",
					"id" : "obj-517",
					"index" : 2,
					"maxclass" : "outlet",
					"numinlets" : 1,
					"numoutlets" : 0,
					"patching_rect" : [ 118.464354999999998, 458.500030999999979, 30.0, 30.0 ]
				}

			}
 ],
		"lines" : [ 			{
				"patchline" : 				{
					"destination" : [ "obj-517", 0 ],
					"source" : [ "obj-107", 0 ]
				}

			}
, 			{
				"patchline" : 				{
					"destination" : [ "obj-516", 0 ],
					"source" : [ "obj-494", 0 ]
				}

			}
, 			{
				"patchline" : 				{
					"destination" : [ "obj-107", 0 ],
					"source" : [ "obj-495", 0 ]
				}

			}
, 			{
				"patchline" : 				{
					"destination" : [ "obj-501", 0 ],
					"source" : [ "obj-496", 0 ]
				}

			}
, 			{
				"patchline" : 				{
					"destination" : [ "obj-501", 1 ],
					"source" : [ "obj-498", 0 ]
				}

			}
, 			{
				"patchline" : 				{
					"destination" : [ "obj-496", 0 ],
					"source" : [ "obj-499", 0 ]
				}

			}
, 			{
				"patchline" : 				{
					"destination" : [ "obj-509", 0 ],
					"source" : [ "obj-499", 1 ]
				}

			}
, 			{
				"patchline" : 				{
					"destination" : [ "obj-498", 0 ],
					"source" : [ "obj-500", 0 ]
				}

			}
, 			{
				"patchline" : 				{
					"destination" : [ "obj-494", 0 ],
					"source" : [ "obj-501", 0 ]
				}

			}
, 			{
				"patchline" : 				{
					"destination" : [ "obj-495", 0 ],
					"source" : [ "obj-501", 1 ]
				}

			}
, 			{
				"patchline" : 				{
					"destination" : [ "obj-500", 0 ],
					"source" : [ "obj-509", 1 ]
				}

			}
, 			{
				"patchline" : 				{
					"destination" : [ "obj-499", 0 ],
					"source" : [ "obj-515", 0 ]
				}

			}
 ]
	}

}
